<svg width="62" height="75" viewBox="0 0 62 75" fill="none" xmlns="http://www.w3.org/2000/svg">
<path d="M56.5625 6V3.25H53.8125H24.8965C21.9287 3.25 19.1065 3.8191 16.4588 4.97323C13.8645 6.10406 11.5693 7.65978 9.59257 9.63651C7.64092 11.5882 6.10161 13.8701 4.97323 16.4588C3.8191 19.1065 3.25 21.9287 3.25 24.8965C3.25 27.8644 3.8191 30.6966 4.96815 33.3664L4.96812 33.3664L4.97323 33.3782C6.09979 35.9626 7.63435 38.2525 9.57602 40.2277L9.59249 40.2444L9.60926 40.2609C11.5844 42.2026 13.8743 43.7371 16.4588 44.8637C19.1065 46.0178 21.9287 46.5869 24.8965 46.5869H37.5088C38.043 46.5869 38.4964 46.683 38.8982 46.853C39.3203 47.0315 39.6633 47.2712 39.9535 47.5767L40.0021 47.6278L40.0532 47.6764C40.3587 47.9666 40.5984 48.3096 40.7769 48.7317C40.9469 49.1335 41.043 49.5869 41.043 50.1211C41.043 50.6553 40.9469 51.1087 40.7769 51.5105C40.5929 51.9454 40.3387 52.323 40.0027 52.659C39.7091 52.9526 39.3505 53.1978 38.8982 53.3892C38.4964 53.5592 38.043 53.6553 37.5088 53.6553H9.51562H6.76562V56.4053V69.0176V71.7676H9.51562H37.5088C40.4742 71.7676 43.2943 71.1994 45.9402 70.0471C48.5567 68.9203 50.8566 67.3811 52.8127 65.425C54.7921 63.4456 56.3358 61.1457 57.4381 58.5449C58.5882 55.9012 59.1553 53.0837 59.1553 50.1211C59.1553 47.1605 58.589 44.3449 57.4405 41.7028C56.3412 39.0779 54.7987 36.7738 52.8128 34.8172C50.8562 32.8313 48.5521 31.2888 45.9272 30.1894C43.2851 29.0409 40.4694 28.4746 37.5088 28.4746H24.8965C24.3623 28.4746 23.9088 28.3785 23.5071 28.2086C23.0657 28.0218 22.6884 27.7786 22.3597 27.4772C22.0623 27.1528 21.8214 26.781 21.6357 26.347C21.456 25.8999 21.3623 25.4236 21.3623 24.8965C21.3623 24.3623 21.4584 23.9088 21.6284 23.5071C21.8197 23.0547 22.065 22.6962 22.3586 22.4026C22.6946 22.0666 23.0721 21.8124 23.5071 21.6284C23.9088 21.4584 24.3623 21.3623 24.8965 21.3623H53.8125H56.5625V18.6123V6Z" stroke="black" stroke-width="5.5"/>
</svg>
