<svg width="556" height="124" viewBox="0 0 556 124" fill="none" xmlns="http://www.w3.org/2000/svg">
<mask id="path-1-outside-1_10_63" maskUnits="userSpaceOnUse" x="0" y="0" width="556" height="124" fill="black">
<rect fill="white" width="556" height="124"/>
<path d="M6.00425 43.8053C6.00425 39.4236 6.80452 35.3127 8.40505 31.4726C10.0056 27.6324 12.171 24.2846 14.9013 21.4291C17.6787 18.5244 20.9033 16.2351 24.5751 14.5612C28.2469 12.8873 32.1776 12.0503 36.3672 12.0503H82.8297V33.2449H36.3672C34.955 33.2449 33.6369 33.5157 32.413 34.0573C31.1891 34.5988 30.1063 35.362 29.1649 36.3466C28.2704 37.282 27.5643 38.3898 27.0465 39.6698C26.5287 40.9499 26.2698 42.3284 26.2698 43.8053C26.2698 45.2823 26.5287 46.6855 27.0465 48.0147C27.5643 49.2948 28.2704 50.4271 29.1649 51.4118C30.1063 52.3472 31.1891 53.0857 32.413 53.6273C33.6369 54.1688 34.955 54.4396 36.3672 54.4396H56.6328C60.8224 54.4396 64.7531 55.2766 68.4249 56.9505C72.1438 58.5751 75.3684 60.8398 78.0987 63.7446C80.8761 66.6001 83.0415 69.9725 84.595 73.8619C86.1955 77.702 86.9958 81.8129 86.9958 86.1946C86.9958 90.5764 86.1955 94.6873 84.595 98.5274C83.0415 102.368 80.8761 105.74 78.0987 108.645C75.3684 111.5 72.1438 113.765 68.4249 115.439C64.7531 117.113 60.8224 117.95 56.6328 117.95H11.6532V96.7551H56.6328C58.045 96.7551 59.3631 96.4843 60.587 95.9427C61.8109 95.4012 62.8701 94.6627 63.7645 93.7272C64.706 92.7426 65.4357 91.6102 65.9535 90.3302C66.4713 89.0501 66.7302 87.6716 66.7302 86.1946C66.7302 84.7177 66.4713 83.3392 65.9535 82.0591C65.4357 80.7791 64.706 79.6713 63.7645 78.7359C62.8701 77.7513 61.8109 76.9881 60.587 76.4466C59.3631 75.905 58.045 75.6342 56.6328 75.6342H36.3672C32.1776 75.6342 28.2469 74.7973 24.5751 73.1234C20.9033 71.4495 17.6787 69.1848 14.9013 66.3293C12.171 63.4246 10.0056 60.0521 8.40505 56.212C6.80452 52.3226 6.00425 48.1871 6.00425 43.8053Z"/>
<path fill-rule="evenodd" clip-rule="evenodd" d="M83.8339 11V34.2952H36.3672C35.0809 34.2952 33.8968 34.5412 32.8043 35.0246C31.6997 35.5133 30.7252 36.2001 29.875 37.0893C29.0766 37.9243 28.4414 38.9172 27.9714 40.079C27.5092 41.2216 27.274 42.46 27.274 43.8053C27.274 45.148 27.5083 46.4141 27.974 47.6119C28.4422 48.7674 29.0758 49.7841 29.8753 50.6689C30.7228 51.5066 31.697 52.17 32.8043 52.66C33.8968 53.1434 35.0809 53.3893 36.3672 53.3893H56.6328C60.9513 53.3893 65.0169 54.2523 68.8191 55.9844C72.6514 57.6598 75.9847 59.999 78.8091 63.0021C81.6803 65.9559 83.9168 69.4418 85.5186 73.4496C87.1748 77.4261 88 81.6781 88 86.1946C88 90.7119 87.1745 94.9646 85.5178 98.9416C83.9149 102.902 81.6778 106.387 78.8088 109.387C75.9848 112.341 72.6533 114.679 68.8242 116.403C65.0206 118.136 60.9533 119 56.6328 119H10.6489V95.7048H56.6328C57.9191 95.7048 59.1032 95.4588 60.1957 94.9754C61.3067 94.4839 62.256 93.8195 63.0544 92.9846C63.9046 92.0954 64.5613 91.0762 65.0286 89.921C65.4908 88.7784 65.726 87.54 65.726 86.1946C65.726 84.8493 65.4908 83.6109 65.0286 82.4683C64.5633 81.318 63.9119 80.331 63.0729 79.4974L63.0542 79.4788L63.0365 79.4593C62.2393 78.5818 61.2956 77.9006 60.1957 77.4139C59.1032 76.9305 57.9191 76.6845 56.6328 76.6845H36.3672C32.046 76.6845 27.978 75.8205 24.1738 74.0862C20.3927 72.3625 17.0648 70.0264 14.1973 67.0783L14.1912 67.072L14.1852 67.0656C11.3663 64.0667 9.13263 60.5861 7.48445 56.6317L7.48259 56.6272C5.82621 52.6021 5 48.3247 5 43.8053C5 39.286 5.82621 35.0315 7.48445 31.0529C9.13329 27.0968 11.3687 23.6383 14.1912 20.6864C17.0592 17.6869 20.3891 15.3237 24.1738 13.5984C27.978 11.8641 32.046 11 36.3672 11H83.8339ZM68.4249 115.439C72.1438 113.765 75.3684 111.5 78.0987 108.645C80.8761 105.74 83.0415 102.368 84.595 98.5274C86.1955 94.6873 86.9958 90.5764 86.9958 86.1946C86.9958 81.8129 86.1955 77.702 84.595 73.8619C83.0415 69.9725 80.8761 66.6001 78.0987 63.7446C75.3684 60.8398 72.1438 58.5751 68.4249 56.9505C64.7531 55.2766 60.8224 54.4396 56.6328 54.4396H36.3672C34.955 54.4396 33.6369 54.1688 32.413 53.6273C31.1891 53.0857 30.1063 52.3472 29.1649 51.4118C28.2704 50.4271 27.5643 49.2948 27.0465 48.0147C26.5287 46.6855 26.2698 45.2823 26.2698 43.8053C26.2698 42.3284 26.5287 40.9499 27.0465 39.6698C27.5643 38.3898 28.2704 37.282 29.1649 36.3466C30.1063 35.362 31.1891 34.5988 32.413 34.0573C33.6369 33.5157 34.955 33.2449 36.3672 33.2449H82.8297V12.0503H36.3672C32.1776 12.0503 28.2469 12.8873 24.5751 14.5612C20.9033 16.2351 17.6787 18.5244 14.9013 21.4291C12.171 24.2846 10.0056 27.6324 8.40505 31.4726C6.80452 35.3127 6.00425 39.4236 6.00425 43.8053C6.00425 48.1871 6.80452 52.3226 8.40505 56.212C10.0056 60.0521 12.171 63.4246 14.9013 66.3293C17.6787 69.1848 20.9033 71.4495 24.5751 73.1234C28.2469 74.7973 32.1776 75.6342 36.3672 75.6342H56.6328C58.045 75.6342 59.3631 75.905 60.587 76.4466C61.8109 76.9881 62.8701 77.7513 63.7645 78.7359C64.706 79.6713 65.4357 80.7791 65.9535 82.0591C66.4713 83.3392 66.7302 84.7177 66.7302 86.1946C66.7302 87.6716 66.4713 89.0501 65.9535 90.3302C65.4357 91.6102 64.706 92.7426 63.7645 93.7272C62.8701 94.6627 61.8109 95.4012 60.587 95.9427C59.3631 96.4843 58.045 96.7551 56.6328 96.7551H11.6532V117.95H56.6328C60.8224 117.95 64.7531 117.113 68.4249 115.439Z"/>
<path d="M119.113 116H100V5H119.113V40.0721C121.4 38.2432 123.757 36.9579 126.184 36.2164C128.611 35.4255 131.085 35.0301 133.605 35.0301C138.226 35.0301 142.566 35.9693 146.627 37.8477C150.688 39.6767 154.211 42.2224 157.199 45.485C160.232 48.6981 162.613 52.4796 164.34 56.8297C166.113 61.1303 167 65.7275 167 70.6212V116H147.747V70.6212H147.887C147.887 68.5451 147.514 66.5925 146.767 64.7635C146.02 62.8851 144.993 61.2538 143.687 59.8697C142.38 58.4856 140.863 57.3981 139.136 56.6072C137.409 55.8163 135.565 55.4208 133.605 55.4208C131.598 55.4208 129.708 55.8163 127.934 56.6072C126.161 57.3981 124.62 58.4856 123.313 59.8697C122.007 61.2538 120.98 62.8851 120.233 64.7635C119.486 66.5925 119.113 68.5451 119.113 70.6212V116Z"/>
<path d="M257 77.0742C257 83.0106 255.991 88.5512 253.973 93.6961C251.956 98.7915 249.211 103.219 245.739 106.979C242.266 110.689 238.184 113.633 233.492 115.809C228.846 117.936 223.849 119 218.5 119C213.198 119 208.2 117.936 203.508 115.809C198.863 113.633 194.781 110.689 191.261 106.979C187.789 103.219 185.044 98.7915 183.027 93.6961C181.009 88.5512 180 83.0106 180 77.0742C180 71.0389 181.009 65.4488 183.027 60.3039C185.044 55.159 187.789 50.7314 191.261 47.0212C194.781 43.2615 198.863 40.318 203.508 38.1908C208.2 36.0636 213.198 35 218.5 35C223.849 35 228.846 36.0141 233.492 38.0424C238.184 40.0212 242.266 42.8657 245.739 46.576C249.211 50.2368 251.956 54.6643 253.973 59.8587C255.991 65.0035 257 70.742 257 77.0742ZM237.644 77.0742C237.644 73.8092 237.128 70.8657 236.096 68.2438C235.111 65.5724 233.75 63.2968 232.014 61.417C230.278 59.4876 228.236 58.0283 225.89 57.0389C223.591 56 221.128 55.4806 218.5 55.4806C215.872 55.4806 213.385 56 211.039 57.0389C208.74 58.0283 206.722 59.4876 204.986 61.417C203.297 63.2968 201.96 65.5724 200.974 68.2438C199.989 70.8657 199.496 73.8092 199.496 77.0742C199.496 80.1413 199.989 82.9859 200.974 85.6078C201.96 88.2297 203.297 90.5053 204.986 92.4346C206.722 94.364 208.74 95.8975 211.039 97.0353C213.385 98.1237 215.872 98.6678 218.5 98.6678C221.128 98.6678 223.591 98.1484 225.89 97.1095C228.236 96.0707 230.278 94.6113 232.014 92.7314C233.75 90.8516 235.111 88.576 236.096 85.9046C237.128 83.2332 237.644 80.2898 237.644 77.0742Z"/>
<path d="M303.98 98.0742C304.73 98.3216 305.481 98.4947 306.231 98.5936C306.982 98.6431 307.732 98.6678 308.482 98.6678C310.358 98.6678 312.164 98.3958 313.9 97.8516C315.635 97.3074 317.253 96.5406 318.754 95.5512C320.302 94.5124 321.662 93.2756 322.834 91.841C324.054 90.3569 325.039 88.7244 325.789 86.9435L339.859 101.859C338.077 104.53 336.013 106.929 333.668 109.057C331.37 111.184 328.861 112.989 326.141 114.473C323.467 115.958 320.63 117.071 317.628 117.813C314.673 118.604 311.625 119 308.482 119C303.183 119 298.188 117.961 293.497 115.883C288.854 113.806 284.774 110.912 281.256 107.201C277.786 103.491 275.042 99.0883 273.025 93.9929C271.008 88.8481 270 83.2085 270 77.0742C270 70.7915 271.008 65.053 273.025 59.8587C275.042 54.6643 277.786 50.2368 281.256 46.576C284.774 42.9152 288.854 40.0707 293.497 38.0424C298.188 36.0141 303.183 35 308.482 35C311.625 35 314.697 35.3958 317.698 36.1873C320.7 36.9788 323.538 38.1166 326.211 39.6007C328.931 41.0848 331.464 42.9152 333.809 45.0919C336.154 47.2191 338.218 49.6184 340 52.2898L303.98 98.0742ZM313.829 56.2968C312.938 55.9505 312.047 55.7279 311.156 55.629C310.312 55.53 309.42 55.4806 308.482 55.4806C305.856 55.4806 303.37 56 301.025 57.0389C298.727 58.0283 296.71 59.4629 294.975 61.3428C293.286 63.2226 291.95 65.4982 290.965 68.1696C289.98 70.7915 289.487 73.7597 289.487 77.0742C289.487 77.8163 289.511 78.6572 289.558 79.5972C289.652 80.5371 289.769 81.5018 289.91 82.4912C290.097 83.4311 290.308 84.3463 290.543 85.2367C290.777 86.1272 291.082 86.9187 291.457 87.6113L313.829 56.2968Z"/>
<path d="M416 116H353L384.817 57.101H353V37H416L384.183 95.899H416V116Z"/>
<path d="M424 116H487L455.183 57.101H487V37H424L455.817 95.899H424V116Z"/>
<path d="M519.311 116H500V37H504.669L511.035 46.3679C514.147 43.4174 517.684 41.1553 521.645 39.5817C525.606 37.9589 529.709 37.1475 533.953 37.1475H551V57.211H533.953C531.925 57.211 530.015 57.6044 528.223 58.3912C526.431 59.178 524.875 60.2599 523.555 61.6368C522.234 63.0137 521.197 64.6365 520.442 66.5051C519.688 68.3738 519.311 70.3654 519.311 72.4799V116Z"/>
</mask>
<path d="M6.00425 43.8053C6.00425 39.4236 6.80452 35.3127 8.40505 31.4726C10.0056 27.6324 12.171 24.2846 14.9013 21.4291C17.6787 18.5244 20.9033 16.2351 24.5751 14.5612C28.2469 12.8873 32.1776 12.0503 36.3672 12.0503H82.8297V33.2449H36.3672C34.955 33.2449 33.6369 33.5157 32.413 34.0573C31.1891 34.5988 30.1063 35.362 29.1649 36.3466C28.2704 37.282 27.5643 38.3898 27.0465 39.6698C26.5287 40.9499 26.2698 42.3284 26.2698 43.8053C26.2698 45.2823 26.5287 46.6855 27.0465 48.0147C27.5643 49.2948 28.2704 50.4271 29.1649 51.4118C30.1063 52.3472 31.1891 53.0857 32.413 53.6273C33.6369 54.1688 34.955 54.4396 36.3672 54.4396H56.6328C60.8224 54.4396 64.7531 55.2766 68.4249 56.9505C72.1438 58.5751 75.3684 60.8398 78.0987 63.7446C80.8761 66.6001 83.0415 69.9725 84.595 73.8619C86.1955 77.702 86.9958 81.8129 86.9958 86.1946C86.9958 90.5764 86.1955 94.6873 84.595 98.5274C83.0415 102.368 80.8761 105.74 78.0987 108.645C75.3684 111.5 72.1438 113.765 68.4249 115.439C64.7531 117.113 60.8224 117.95 56.6328 117.95H11.6532V96.7551H56.6328C58.045 96.7551 59.3631 96.4843 60.587 95.9427C61.8109 95.4012 62.8701 94.6627 63.7645 93.7272C64.706 92.7426 65.4357 91.6102 65.9535 90.3302C66.4713 89.0501 66.7302 87.6716 66.7302 86.1946C66.7302 84.7177 66.4713 83.3392 65.9535 82.0591C65.4357 80.7791 64.706 79.6713 63.7645 78.7359C62.8701 77.7513 61.8109 76.9881 60.587 76.4466C59.3631 75.905 58.045 75.6342 56.6328 75.6342H36.3672C32.1776 75.6342 28.2469 74.7973 24.5751 73.1234C20.9033 71.4495 17.6787 69.1848 14.9013 66.3293C12.171 63.4246 10.0056 60.0521 8.40505 56.212C6.80452 52.3226 6.00425 48.1871 6.00425 43.8053Z" stroke="black" stroke-width="10" mask="url(#path-1-outside-1_10_63)"/>
<path fill-rule="evenodd" clip-rule="evenodd" d="M83.8339 11V34.2952H36.3672C35.0809 34.2952 33.8968 34.5412 32.8043 35.0246C31.6997 35.5133 30.7252 36.2001 29.875 37.0893C29.0766 37.9243 28.4414 38.9172 27.9714 40.079C27.5092 41.2216 27.274 42.46 27.274 43.8053C27.274 45.148 27.5083 46.4141 27.974 47.6119C28.4422 48.7674 29.0758 49.7841 29.8753 50.6689C30.7228 51.5066 31.697 52.17 32.8043 52.66C33.8968 53.1434 35.0809 53.3893 36.3672 53.3893H56.6328C60.9513 53.3893 65.0169 54.2523 68.8191 55.9844C72.6514 57.6598 75.9847 59.999 78.8091 63.0021C81.6803 65.9559 83.9168 69.4418 85.5186 73.4496C87.1748 77.4261 88 81.6781 88 86.1946C88 90.7119 87.1745 94.9646 85.5178 98.9416C83.9149 102.902 81.6778 106.387 78.8088 109.387C75.9848 112.341 72.6533 114.679 68.8242 116.403C65.0206 118.136 60.9533 119 56.6328 119H10.6489V95.7048H56.6328C57.9191 95.7048 59.1032 95.4588 60.1957 94.9754C61.3067 94.4839 62.256 93.8195 63.0544 92.9846C63.9046 92.0954 64.5613 91.0762 65.0286 89.921C65.4908 88.7784 65.726 87.54 65.726 86.1946C65.726 84.8493 65.4908 83.6109 65.0286 82.4683C64.5633 81.318 63.9119 80.331 63.0729 79.4974L63.0542 79.4788L63.0365 79.4593C62.2393 78.5818 61.2956 77.9006 60.1957 77.4139C59.1032 76.9305 57.9191 76.6845 56.6328 76.6845H36.3672C32.046 76.6845 27.978 75.8205 24.1738 74.0862C20.3927 72.3625 17.0648 70.0264 14.1973 67.0783L14.1912 67.072L14.1852 67.0656C11.3663 64.0667 9.13263 60.5861 7.48445 56.6317L7.48259 56.6272C5.82621 52.6021 5 48.3247 5 43.8053C5 39.286 5.82621 35.0315 7.48445 31.0529C9.13329 27.0968 11.3687 23.6383 14.1912 20.6864C17.0592 17.6869 20.3891 15.3237 24.1738 13.5984C27.978 11.8641 32.046 11 36.3672 11H83.8339ZM68.4249 115.439C72.1438 113.765 75.3684 111.5 78.0987 108.645C80.8761 105.74 83.0415 102.368 84.595 98.5274C86.1955 94.6873 86.9958 90.5764 86.9958 86.1946C86.9958 81.8129 86.1955 77.702 84.595 73.8619C83.0415 69.9725 80.8761 66.6001 78.0987 63.7446C75.3684 60.8398 72.1438 58.5751 68.4249 56.9505C64.7531 55.2766 60.8224 54.4396 56.6328 54.4396H36.3672C34.955 54.4396 33.6369 54.1688 32.413 53.6273C31.1891 53.0857 30.1063 52.3472 29.1649 51.4118C28.2704 50.4271 27.5643 49.2948 27.0465 48.0147C26.5287 46.6855 26.2698 45.2823 26.2698 43.8053C26.2698 42.3284 26.5287 40.9499 27.0465 39.6698C27.5643 38.3898 28.2704 37.282 29.1649 36.3466C30.1063 35.362 31.1891 34.5988 32.413 34.0573C33.6369 33.5157 34.955 33.2449 36.3672 33.2449H82.8297V12.0503H36.3672C32.1776 12.0503 28.2469 12.8873 24.5751 14.5612C20.9033 16.2351 17.6787 18.5244 14.9013 21.4291C12.171 24.2846 10.0056 27.6324 8.40505 31.4726C6.80452 35.3127 6.00425 39.4236 6.00425 43.8053C6.00425 48.1871 6.80452 52.3226 8.40505 56.212C10.0056 60.0521 12.171 63.4246 14.9013 66.3293C17.6787 69.1848 20.9033 71.4495 24.5751 73.1234C28.2469 74.7973 32.1776 75.6342 36.3672 75.6342H56.6328C58.045 75.6342 59.3631 75.905 60.587 76.4466C61.8109 76.9881 62.8701 77.7513 63.7645 78.7359C64.706 79.6713 65.4357 80.7791 65.9535 82.0591C66.4713 83.3392 66.7302 84.7177 66.7302 86.1946C66.7302 87.6716 66.4713 89.0501 65.9535 90.3302C65.4357 91.6102 64.706 92.7426 63.7645 93.7272C62.8701 94.6627 61.8109 95.4012 60.587 95.9427C59.3631 96.4843 58.045 96.7551 56.6328 96.7551H11.6532V117.95H56.6328C60.8224 117.95 64.7531 117.113 68.4249 115.439Z" stroke="black" stroke-width="10" mask="url(#path-1-outside-1_10_63)"/>
<path d="M119.113 116H100V5H119.113V40.0721C121.4 38.2432 123.757 36.9579 126.184 36.2164C128.611 35.4255 131.085 35.0301 133.605 35.0301C138.226 35.0301 142.566 35.9693 146.627 37.8477C150.688 39.6767 154.211 42.2224 157.199 45.485C160.232 48.6981 162.613 52.4796 164.34 56.8297C166.113 61.1303 167 65.7275 167 70.6212V116H147.747V70.6212H147.887C147.887 68.5451 147.514 66.5925 146.767 64.7635C146.02 62.8851 144.993 61.2538 143.687 59.8697C142.38 58.4856 140.863 57.3981 139.136 56.6072C137.409 55.8163 135.565 55.4208 133.605 55.4208C131.598 55.4208 129.708 55.8163 127.934 56.6072C126.161 57.3981 124.62 58.4856 123.313 59.8697C122.007 61.2538 120.98 62.8851 120.233 64.7635C119.486 66.5925 119.113 68.5451 119.113 70.6212V116Z" stroke="black" stroke-width="10" mask="url(#path-1-outside-1_10_63)"/>
<path d="M257 77.0742C257 83.0106 255.991 88.5512 253.973 93.6961C251.956 98.7915 249.211 103.219 245.739 106.979C242.266 110.689 238.184 113.633 233.492 115.809C228.846 117.936 223.849 119 218.5 119C213.198 119 208.2 117.936 203.508 115.809C198.863 113.633 194.781 110.689 191.261 106.979C187.789 103.219 185.044 98.7915 183.027 93.6961C181.009 88.5512 180 83.0106 180 77.0742C180 71.0389 181.009 65.4488 183.027 60.3039C185.044 55.159 187.789 50.7314 191.261 47.0212C194.781 43.2615 198.863 40.318 203.508 38.1908C208.2 36.0636 213.198 35 218.5 35C223.849 35 228.846 36.0141 233.492 38.0424C238.184 40.0212 242.266 42.8657 245.739 46.576C249.211 50.2368 251.956 54.6643 253.973 59.8587C255.991 65.0035 257 70.742 257 77.0742ZM237.644 77.0742C237.644 73.8092 237.128 70.8657 236.096 68.2438C235.111 65.5724 233.75 63.2968 232.014 61.417C230.278 59.4876 228.236 58.0283 225.89 57.0389C223.591 56 221.128 55.4806 218.5 55.4806C215.872 55.4806 213.385 56 211.039 57.0389C208.74 58.0283 206.722 59.4876 204.986 61.417C203.297 63.2968 201.96 65.5724 200.974 68.2438C199.989 70.8657 199.496 73.8092 199.496 77.0742C199.496 80.1413 199.989 82.9859 200.974 85.6078C201.96 88.2297 203.297 90.5053 204.986 92.4346C206.722 94.364 208.74 95.8975 211.039 97.0353C213.385 98.1237 215.872 98.6678 218.5 98.6678C221.128 98.6678 223.591 98.1484 225.89 97.1095C228.236 96.0707 230.278 94.6113 232.014 92.7314C233.75 90.8516 235.111 88.576 236.096 85.9046C237.128 83.2332 237.644 80.2898 237.644 77.0742Z" stroke="black" stroke-width="10" mask="url(#path-1-outside-1_10_63)"/>
<path d="M303.98 98.0742C304.73 98.3216 305.481 98.4947 306.231 98.5936C306.982 98.6431 307.732 98.6678 308.482 98.6678C310.358 98.6678 312.164 98.3958 313.9 97.8516C315.635 97.3074 317.253 96.5406 318.754 95.5512C320.302 94.5124 321.662 93.2756 322.834 91.841C324.054 90.3569 325.039 88.7244 325.789 86.9435L339.859 101.859C338.077 104.53 336.013 106.929 333.668 109.057C331.37 111.184 328.861 112.989 326.141 114.473C323.467 115.958 320.63 117.071 317.628 117.813C314.673 118.604 311.625 119 308.482 119C303.183 119 298.188 117.961 293.497 115.883C288.854 113.806 284.774 110.912 281.256 107.201C277.786 103.491 275.042 99.0883 273.025 93.9929C271.008 88.8481 270 83.2085 270 77.0742C270 70.7915 271.008 65.053 273.025 59.8587C275.042 54.6643 277.786 50.2368 281.256 46.576C284.774 42.9152 288.854 40.0707 293.497 38.0424C298.188 36.0141 303.183 35 308.482 35C311.625 35 314.697 35.3958 317.698 36.1873C320.7 36.9788 323.538 38.1166 326.211 39.6007C328.931 41.0848 331.464 42.9152 333.809 45.0919C336.154 47.2191 338.218 49.6184 340 52.2898L303.98 98.0742ZM313.829 56.2968C312.938 55.9505 312.047 55.7279 311.156 55.629C310.312 55.53 309.42 55.4806 308.482 55.4806C305.856 55.4806 303.37 56 301.025 57.0389C298.727 58.0283 296.71 59.4629 294.975 61.3428C293.286 63.2226 291.95 65.4982 290.965 68.1696C289.98 70.7915 289.487 73.7597 289.487 77.0742C289.487 77.8163 289.511 78.6572 289.558 79.5972C289.652 80.5371 289.769 81.5018 289.91 82.4912C290.097 83.4311 290.308 84.3463 290.543 85.2367C290.777 86.1272 291.082 86.9187 291.457 87.6113L313.829 56.2968Z" stroke="black" stroke-width="10" mask="url(#path-1-outside-1_10_63)"/>
<path d="M416 116H353L384.817 57.101H353V37H416L384.183 95.899H416V116Z" stroke="black" stroke-width="10" mask="url(#path-1-outside-1_10_63)"/>
<path d="M424 116H487L455.183 57.101H487V37H424L455.817 95.899H424V116Z" stroke="black" stroke-width="10" mask="url(#path-1-outside-1_10_63)"/>
<path d="M519.311 116H500V37H504.669L511.035 46.3679C514.147 43.4174 517.684 41.1553 521.645 39.5817C525.606 37.9589 529.709 37.1475 533.953 37.1475H551V57.211H533.953C531.925 57.211 530.015 57.6044 528.223 58.3912C526.431 59.178 524.875 60.2599 523.555 61.6368C522.234 63.0137 521.197 64.6365 520.442 66.5051C519.688 68.3738 519.311 70.3654 519.311 72.4799V116Z" stroke="black" stroke-width="10" mask="url(#path-1-outside-1_10_63)"/>
</svg>
