<svg width="509" height="459" viewBox="0 0 509 459" fill="none" xmlns="http://www.w3.org/2000/svg">
<path d="M134.251 350.207C256.753 218.391 374.245 349.856 374.245 349.856M501 229.5C501 351.831 390.638 451 254.5 451C118.362 451 8 351.831 8 229.5C8 107.169 118.362 8 254.5 8C390.638 8 501 107.169 501 229.5ZM157 167C157 176.941 149.837 185 141 185C132.163 185 125 176.941 125 167C125 157.059 132.163 149 141 149C149.837 149 157 157.059 157 167ZM365 167C365 176.941 357.837 185 349 185C340.163 185 333 176.941 333 167C333 157.059 340.163 149 349 149C357.837 149 365 157.059 365 167Z" stroke="black" stroke-width="15"/>
</svg>
